<svg width="48" height="48" viewBox="0 0 48 48" fill="none" xmlns="http://www.w3.org/2000/svg"><circle cx="24" cy="24" r="24" fill="#3F9CFB"></circle><g clip-path="url(#clip0_302_974)"><path d="M33 28.5C32.4548 28.5005 31.9203 28.651 31.455 28.935L28.915 26.84C29.3903 25.9481 29.5827 24.9326 29.4666 23.9286C29.3505 22.9246 28.9313 21.9799 28.265 21.22L29.44 19.685C29.9341 19.8919 30.4643 19.9989 31 20C31.9048 20.0012 32.7833 19.6956 33.492 19.133C34.2007 18.5705 34.6977 17.7843 34.902 16.9029C35.1062 16.0214 35.0055 15.0968 34.6164 14.2799C34.2274 13.463 33.5728 12.8022 32.7597 12.4053C31.9465 12.0084 31.0229 11.899 30.1395 12.0948C29.2561 12.2906 28.4653 12.7801 27.896 13.4835C27.3268 14.1868 27.0128 15.0623 27.0053 15.9671C26.9979 16.8718 27.2974 17.7524 27.855 18.465L26.68 20C25.9005 19.6192 25.0349 19.4488 24.1692 19.5058C23.3035 19.5628 22.4678 19.8452 21.745 20.325L18.705 17.285C19.0098 16.6464 19.0791 15.9206 18.9006 15.2358C18.7221 14.5511 18.3073 13.9515 17.7294 13.543C17.1516 13.1345 16.448 12.9434 15.7429 13.0035C15.0378 13.0636 14.3767 13.3709 13.8763 13.8713C13.3759 14.3717 13.0685 15.0328 13.0085 15.7379C12.9484 16.443 13.1395 17.1466 13.548 17.7245C13.9565 18.3023 14.5561 18.7171 15.2408 18.8956C15.9256 19.0741 16.6514 19.0048 17.29 18.7L20.33 21.74C19.817 22.5152 19.5303 23.4181 19.502 24.3473C19.4737 25.2764 19.7051 26.195 20.17 27L18.24 28.7C17.4999 28.1998 16.6137 27.9617 15.7226 28.0236C14.8315 28.0856 13.9868 28.444 13.323 29.0418C12.6593 29.6396 12.2148 30.4424 12.0603 31.3222C11.9058 32.202 12.0502 33.1082 12.4706 33.8963C12.891 34.6845 13.563 35.3093 14.3797 35.6711C15.1964 36.033 16.1107 36.111 16.9769 35.8929C17.8431 35.6747 18.6114 35.1729 19.1593 34.4674C19.7071 33.7619 20.0031 32.8933 20 32C19.9997 31.3702 19.8488 30.7496 19.56 30.19L21.5 28.5C22.3871 29.1748 23.4753 29.5318 24.5898 29.5137C25.7043 29.4956 26.7803 29.1033 27.645 28.4L30.185 30.5C30.0651 30.8199 30.0025 31.1584 30 31.5C30 32.0933 30.1759 32.6734 30.5056 33.1667C30.8352 33.6601 31.3038 34.0446 31.8519 34.2716C32.4001 34.4987 33.0033 34.5581 33.5853 34.4424C34.1672 34.3266 34.7017 34.0409 35.1213 33.6213C35.5409 33.2018 35.8266 32.6672 35.9423 32.0853C36.0581 31.5033 35.9987 30.9001 35.7716 30.352C35.5446 29.8038 35.16 29.3352 34.6667 29.0056C34.1733 28.6759 33.5933 28.5 33 28.5ZM31 14C31.3955 14 31.7822 14.1173 32.1111 14.3371C32.44 14.5568 32.6964 14.8692 32.8477 15.2346C32.9991 15.6001 33.0387 16.0022 32.9616 16.3902C32.8844 16.7781 32.6939 17.1345 32.4142 17.4142C32.1345 17.6939 31.7781 17.8844 31.3902 17.9616C31.0022 18.0387 30.6001 17.9991 30.2346 17.8478C29.8692 17.6964 29.5568 17.44 29.337 17.1111C29.1173 16.7822 29 16.3956 29 16C29 15.4696 29.2107 14.9609 29.5858 14.5858C29.9608 14.2107 30.4695 14 31 14V14ZM15 16C15 15.8022 15.0586 15.6089 15.1685 15.4444C15.2784 15.28 15.4346 15.1518 15.6173 15.0761C15.8 15.0004 16.0011 14.9806 16.1951 15.0192C16.3891 15.0578 16.5672 15.153 16.7071 15.2929C16.8469 15.4327 16.9422 15.6109 16.9808 15.8049C17.0194 15.9989 16.9995 16.2 16.9239 16.3827C16.8482 16.5654 16.72 16.7216 16.5556 16.8315C16.3911 16.9414 16.1978 17 16 17C15.7348 17 15.4804 16.8946 15.2929 16.7071C15.1053 16.5196 15 16.2652 15 16ZM16 34C15.6044 34 15.2177 33.8827 14.8888 33.6629C14.5599 33.4432 14.3036 33.1308 14.1522 32.7654C14.0008 32.3999 13.9612 31.9978 14.0384 31.6098C14.1156 31.2219 14.3061 30.8655 14.5858 30.5858C14.8655 30.3061 15.2218 30.1156 15.6098 30.0384C15.9978 29.9613 16.3999 30.0009 16.7653 30.1522C17.1308 30.3036 17.4432 30.56 17.6629 30.8889C17.8827 31.2178 18 31.6044 18 32C18 32.5304 17.7893 33.0391 17.4142 33.4142C17.0391 33.7893 16.5304 34 16 34ZM24.5 27.5C23.9066 27.5 23.3266 27.3241 22.8333 26.9944C22.3399 26.6648 21.9554 26.1962 21.7283 25.6481C21.5013 25.0999 21.4419 24.4967 21.5576 23.9147C21.6734 23.3328 21.9591 22.7982 22.3787 22.3787C22.7982 21.9591 23.3328 21.6734 23.9147 21.5576C24.4967 21.4419 25.0999 21.5013 25.648 21.7284C26.1962 21.9554 26.6647 22.3399 26.9944 22.8333C27.324 23.3266 27.5 23.9067 27.5 24.5C27.5 25.2957 27.1839 26.0587 26.6213 26.6213C26.0587 27.1839 25.2956 27.5 24.5 27.5V27.5ZM33 32.5C32.8022 32.5 32.6089 32.4414 32.4444 32.3315C32.28 32.2216 32.1518 32.0654 32.0761 31.8827C32.0004 31.7 31.9806 31.4989 32.0192 31.3049C32.0578 31.1109 32.153 30.9327 32.2929 30.7929C32.4327 30.653 32.6109 30.5578 32.8049 30.5192C32.9989 30.4806 33.1999 30.5004 33.3827 30.5761C33.5654 30.6518 33.7216 30.78 33.8315 30.9444C33.9413 31.1089 34 31.3022 34 31.5C34 31.7652 33.8946 32.0196 33.7071 32.2071C33.5196 32.3946 33.2652 32.5 33 32.5Z" fill="white"></path></g><defs><clipPath id="clip0_302_974"><rect width="24" height="24" fill="white" transform="translate(12 12)"></rect></clipPath></defs></svg>