<svg width="48" height="48" viewBox="0 0 48 48" fill="none" xmlns="http://www.w3.org/2000/svg"><circle cx="24" cy="24" r="24" fill="#3F9CFB"></circle><path d="M31 12H16.5C15.5717 12 14.6815 12.3687 14.0251 13.0251C13.3687 13.6815 13 14.5717 13 15.5V32.5C13 33.4283 13.3687 34.3185 14.0251 34.9749C14.6815 35.6313 15.5717 36 16.5 36H31C31.7956 36 32.5587 35.6839 33.1213 35.1213C33.6839 34.5587 34 33.7956 34 33V15C34 14.2044 33.6839 13.4413 33.1213 12.8787C32.5587 12.3161 31.7956 12 31 12V12ZM32 33C32 33.2652 31.8946 33.5196 31.7071 33.7071C31.5196 33.8946 31.2652 34 31 34H16.5C16.1022 34 15.7206 33.842 15.4393 33.5607C15.158 33.2794 15 32.8978 15 32.5V18.66C15.4679 18.8851 15.9807 19.0013 16.5 19V25C16.5003 25.1809 16.5497 25.3583 16.6429 25.5133C16.7361 25.6683 16.8695 25.7952 17.0291 25.8803C17.1887 25.9655 17.3684 26.0058 17.549 25.9969C17.7297 25.9881 17.9045 25.9304 18.055 25.83L20.5 24.2L22.945 25.83C23.0954 25.9302 23.2701 25.9877 23.4506 25.9965C23.6311 26.0053 23.8106 25.965 23.97 25.88C24.1297 25.795 24.2633 25.6682 24.3566 25.5133C24.45 25.3583 24.4995 25.1809 24.5 25V19H31C31.2652 19 31.5196 19.1054 31.7071 19.2929C31.8946 19.4804 32 19.7348 32 20V33ZM18.5 19H22.5V23.13L21.055 22.17C20.8907 22.0604 20.6975 22.0019 20.5 22.0019C20.3025 22.0019 20.1093 22.0604 19.945 22.17L18.5 23.13V19ZM31 17H16.5C16.1022 17 15.7206 16.842 15.4393 16.5607C15.158 16.2794 15 15.8978 15 15.5C15 15.1022 15.158 14.7206 15.4393 14.4393C15.7206 14.158 16.1022 14 16.5 14H31C31.1745 14.0011 31.3457 14.0478 31.4966 14.1355C31.6475 14.2232 31.7727 14.3489 31.86 14.5H19C18.7348 14.5 18.4804 14.6054 18.2929 14.7929C18.1054 14.9804 18 15.2348 18 15.5C18 15.7652 18.1054 16.0196 18.2929 16.2071C18.4804 16.3946 18.7348 16.5 19 16.5H32V17.17C31.6787 17.057 31.3406 16.9995 31 17Z" fill="white"></path></svg>