<svg width="48" height="48" viewBox="0 0 48 48" fill="none" xmlns="http://www.w3.org/2000/svg"><circle cx="24" cy="24" r="24" fill="#3F9CFB"></circle><g clip-path="url(#clip0_302_976)"><path d="M32 12H16C14.9391 12 13.9217 12.4214 13.1716 13.1716C12.4214 13.9217 12 14.9391 12 16V19C12 19.7956 12.3161 20.5587 12.8787 21.1213C13.4413 21.6839 14.2044 22 15 22H18V26C18 26.7956 18.3161 27.5587 18.8787 28.1213C19.4413 28.6839 20.2044 29 21 29H25.5V35C25.5028 35.1728 25.5503 35.3419 25.6379 35.4909C25.7256 35.6399 25.8503 35.7636 26 35.85C26.1445 35.9393 26.3095 35.9903 26.4792 35.9981C26.6489 36.006 26.8178 35.9705 26.97 35.895L29.5 34.62L32.055 35.895C32.2072 35.9705 32.3761 36.006 32.5458 35.9981C32.7155 35.9903 32.8805 35.9393 33.025 35.85C33.17 35.7605 33.2898 35.6355 33.3729 35.4867C33.4561 35.338 33.4998 35.1704 33.5 35V28.955C34.1985 28.8369 34.8327 28.4755 35.2903 27.9346C35.7479 27.3938 35.9993 26.7084 36 26V16C36 14.9391 35.5786 13.9217 34.8284 13.1716C34.0783 12.4214 33.0609 12 32 12V12ZM15 20C14.7348 20 14.4804 19.8946 14.2929 19.7071C14.1054 19.5196 14 19.2652 14 19V16C14 15.4696 14.2107 14.9609 14.5858 14.5858C14.9609 14.2107 15.4696 14 16 14C16.5304 14 17.0391 14.2107 17.4142 14.5858C17.7893 14.9609 18 15.4696 18 16V20H15ZM29.945 32.605C29.8067 32.5363 29.6544 32.5005 29.5 32.5005C29.3456 32.5005 29.1933 32.5363 29.055 32.605L27.5 33.38V31.46C28.1072 31.8135 28.7973 31.9998 29.5 31.9998C30.2027 31.9998 30.8928 31.8135 31.5 31.46V33.38L29.945 32.605ZM27.5 28C27.5 27.6044 27.6173 27.2178 27.8371 26.8889C28.0568 26.56 28.3692 26.3036 28.7346 26.1522C29.1001 26.0009 29.5022 25.9613 29.8902 26.0384C30.2781 26.1156 30.6345 26.3061 30.9142 26.5858C31.1939 26.8655 31.3844 27.2219 31.4616 27.6098C31.5387 27.9978 31.4991 28.3999 31.3478 28.7654C31.1964 29.1308 30.94 29.4432 30.6111 29.6629C30.2822 29.8827 29.8956 30 29.5 30C28.9696 30 28.4609 29.7893 28.0858 29.4142C27.7107 29.0391 27.5 28.5304 27.5 28V28ZM34 26C33.9996 26.2035 33.9372 26.402 33.8211 26.5691C33.7049 26.7361 33.5406 26.8638 33.35 26.935C33.1127 26.0895 32.6037 25.3456 31.9016 24.818C31.1995 24.2905 30.3433 24.0087 29.4652 24.0161C28.587 24.0235 27.7357 24.3197 27.0426 24.859C26.3494 25.3982 25.8531 26.1506 25.63 27H21C20.7348 27 20.4804 26.8946 20.2929 26.7071C20.1054 26.5196 20 26.2652 20 26V16C19.9988 15.2975 19.8125 14.6077 19.46 14H32C32.5304 14 33.0391 14.2107 33.4142 14.5858C33.7893 14.9609 34 15.4696 34 16V26Z" fill="white"></path><path d="M23 18H27C27.2652 18 27.5196 17.8946 27.7071 17.7071C27.8946 17.5196 28 17.2652 28 17C28 16.7348 27.8946 16.4804 27.7071 16.2929C27.5196 16.1054 27.2652 16 27 16H23C22.7348 16 22.4804 16.1054 22.2929 16.2929C22.1054 16.4804 22 16.7348 22 17C22 17.2652 22.1054 17.5196 22.2929 17.7071C22.4804 17.8946 22.7348 18 23 18V18Z" fill="white"></path><path d="M31 20H23C22.7348 20 22.4804 20.1054 22.2929 20.2929C22.1054 20.4804 22 20.7348 22 21C22 21.2652 22.1054 21.5196 22.2929 21.7071C22.4804 21.8946 22.7348 22 23 22H31C31.2652 22 31.5196 21.8946 31.7071 21.7071C31.8946 21.5196 32 21.2652 32 21C32 20.7348 31.8946 20.4804 31.7071 20.2929C31.5196 20.1054 31.2652 20 31 20Z" fill="white"></path></g><defs><clipPath id="clip0_302_976"><rect width="24" height="24" fill="white" transform="translate(12 12)"></rect></clipPath></defs></svg>