<svg width="48" height="48" viewBox="0 0 48 48" fill="none" xmlns="http://www.w3.org/2000/svg"><circle cx="24" cy="24" r="24" fill="#3F9CFB"></circle><g clip-path="url(#clip0_401_1323)"><path d="M34 34H32.5V13C32.5 12.7348 32.3946 12.4804 32.2071 12.2929C32.0196 12.1054 31.7652 12 31.5 12C31.2348 12 30.9804 12.1054 30.7929 12.2929C30.6054 12.4804 30.5 12.7348 30.5 13V15.5H22.5V15C22.5 14.7348 22.3946 14.4804 22.2071 14.2929C22.0196 14.1054 21.7652 14 21.5 14C21.2348 14 20.9804 14.1054 20.7929 14.2929C20.6054 14.4804 20.5 14.7348 20.5 15V15.5H19.5V15C19.5 14.7348 19.3946 14.4804 19.2071 14.2929C19.0196 14.1054 18.7652 14 18.5 14C18.2348 14 17.9804 14.1054 17.7929 14.2929C17.6054 14.4804 17.5 14.7348 17.5 15V15.5H16.5V13C16.5 12.7348 16.3946 12.4804 16.2071 12.2929C16.0196 12.1054 15.7652 12 15.5 12C15.2348 12 14.9804 12.1054 14.7929 12.2929C14.6054 12.4804 14.5 12.7348 14.5 13V34H13C12.7348 34 12.4804 34.1054 12.2929 34.2929C12.1054 34.4804 12 34.7348 12 35C12 35.2652 12.1054 35.5196 12.2929 35.7071C12.4804 35.8946 12.7348 36 13 36H34C34.2652 36 34.5196 35.8946 34.7071 35.7071C34.8946 35.5196 35 35.2652 35 35C35 34.7348 34.8946 34.4804 34.7071 34.2929C34.5196 34.1054 34.2652 34 34 34ZM21.5 27C21.2348 27 20.9804 27.1054 20.7929 27.2929C20.6054 27.4804 20.5 27.7348 20.5 28V28.5H19.5V28C19.5 27.7348 19.3946 27.4804 19.2071 27.2929C19.0196 27.1054 18.7652 27 18.5 27C18.2348 27 17.9804 27.1054 17.7929 27.2929C17.6054 27.4804 17.5 27.7348 17.5 28V28.5H16.5V24H24.5V24.5C24.5 24.7652 24.6054 25.0196 24.7929 25.2071C24.9804 25.3946 25.2348 25.5 25.5 25.5C25.7652 25.5 26.0196 25.3946 26.2071 25.2071C26.3946 25.0196 26.5 24.7652 26.5 24.5V24H27.5V24.5C27.5 24.7652 27.6054 25.0196 27.7929 25.2071C27.9804 25.3946 28.2348 25.5 28.5 25.5C28.7652 25.5 29.0196 25.3946 29.2071 25.2071C29.3946 25.0196 29.5 24.7652 29.5 24.5V24H30.5V28.5H22.5V28C22.5 27.7348 22.3946 27.4804 22.2071 27.2929C22.0196 27.1054 21.7652 27 21.5 27ZM17.5 17.5V18C17.5 18.2652 17.6054 18.5196 17.7929 18.7071C17.9804 18.8946 18.2348 19 18.5 19C18.7652 19 19.0196 18.8946 19.2071 18.7071C19.3946 18.5196 19.5 18.2652 19.5 18V17.5H20.5V18C20.5 18.2652 20.6054 18.5196 20.7929 18.7071C20.9804 18.8946 21.2348 19 21.5 19C21.7652 19 22.0196 18.8946 22.2071 18.7071C22.3946 18.5196 22.5 18.2652 22.5 18V17.5H30.5V22H29.5V21.5C29.5 21.2348 29.3946 20.9804 29.2071 20.7929C29.0196 20.6054 28.7652 20.5 28.5 20.5C28.2348 20.5 27.9804 20.6054 27.7929 20.7929C27.6054 20.9804 27.5 21.2348 27.5 21.5V22H26.5V21.5C26.5 21.2348 26.3946 20.9804 26.2071 20.7929C26.0196 20.6054 25.7652 20.5 25.5 20.5C25.2348 20.5 24.9804 20.6054 24.7929 20.7929C24.6054 20.9804 24.5 21.2348 24.5 21.5V22H16.5V17.5H17.5ZM16.5 30.5H17.5V31C17.5 31.2652 17.6054 31.5196 17.7929 31.7071C17.9804 31.8946 18.2348 32 18.5 32C18.7652 32 19.0196 31.8946 19.2071 31.7071C19.3946 31.5196 19.5 31.2652 19.5 31V30.5H20.5V31C20.5 31.2652 20.6054 31.5196 20.7929 31.7071C20.9804 31.8946 21.2348 32 21.5 32C21.7652 32 22.0196 31.8946 22.2071 31.7071C22.3946 31.5196 22.5 31.2652 22.5 31V30.5H30.5V34H16.5V30.5Z" fill="white"></path></g><defs><clipPath id="clip0_401_1323"><rect width="23" height="24" fill="white" transform="translate(12 12)"></rect></clipPath></defs></svg>