<svg width="20" height="20" viewBox="0 0 20 19" fill="none" xmlns="http://www.w3.org/2000/svg"><path d="M15.3183 18.2087H19.1673V11.0312C19.1673 7.48648 16.8464 6.27744 14.6987 6.27744C12.7128 6.27744 11.3638 7.49711 10.9913 8.21156V6.60362H7.28971V18.2087H11.1387V11.9168C11.1387 10.2392 12.2582 9.4233 13.4003 9.4233C14.4806 9.4233 15.3183 10.0001 15.3183 11.8702V18.2087Z" fill="#A2AAB0"></path><path d="M0.833984 2.88979C0.833984 4.10135 1.82747 4.98674 3.05298 4.98674C4.27866 4.98674 5.27214 4.10135 5.27214 2.88979C5.27214 1.67839 4.27866 0.791992 3.05298 0.791992C1.82747 0.791992 0.833984 1.67839 0.833984 2.88979Z" fill="#A2AAB0"></path><path d="M1.12858 18.1997H4.97737V6.59468H1.12858V18.1997Z" fill="#A2AAB0"></path></svg>