<svg width="158" height="20" viewBox="0 0 158 20" fill="none" xmlns="http://www.w3.org/2000/svg"><g clip-path="url(#clip0_151_1216)"><path d="M67.3743 6.6759C66.4051 5.64099 65.12 5.12354 63.5189 5.12354C61.5411 5.12354 60.0626 5.92353 59.0836 7.52353C58.2173 5.92573 56.8336 5.12573 54.9325 5.12354C53.086 5.12354 51.6832 5.87699 50.7238 7.3839V5.4915H48.2598V19.6188H50.7238V11.7617C50.7238 10.3873 51.0578 9.32833 51.7259 8.58473C52.3939 7.84113 53.2651 7.46878 54.3394 7.46768C55.2626 7.46768 55.9925 7.77377 56.5292 8.38596C57.0658 8.99814 57.333 9.84085 57.3308 10.9141V19.6205H59.7949V11.7617C59.7949 10.349 60.1004 9.28014 60.7115 8.55516C61.3226 7.83017 62.1752 7.46768 63.2692 7.46768C64.2307 7.46768 64.9886 7.77377 65.5427 8.38596C66.0969 8.99814 66.3712 9.84085 66.3657 10.9141V19.6205H68.8298V10.8303C68.8298 9.0978 68.3446 7.71299 67.3743 6.6759Z" fill="white"></path><path d="M82.7522 7.2705C82.0561 6.56283 81.2211 6.00688 80.2996 5.63765C79.3975 5.28766 78.4368 5.11314 77.4693 5.12348C75.3786 5.12348 73.6176 5.83915 72.1863 7.2705C70.8609 8.57312 70.0949 10.3408 70.0508 12.1986C70.0508 12.3136 70.0508 12.4319 70.0508 12.5518C70.0508 14.6392 70.7665 16.3996 72.1978 17.8331C73.6291 19.2667 75.3901 19.9823 77.4808 19.9802C79.5725 19.9802 81.3335 19.2645 82.7637 17.8331C83.4655 17.1472 84.0196 16.325 84.3919 15.4171C84.7642 14.5091 84.9469 13.5346 84.9288 12.5535C84.9459 11.5709 84.7616 10.5953 84.3873 9.68672C84.0129 8.77813 83.4565 7.95583 82.7522 7.2705ZM81.029 16.1411C80.0807 17.0659 78.8086 17.5835 77.484 17.5835C76.1595 17.5835 74.8874 17.0659 73.9391 16.1411C72.9797 15.1818 72.4995 13.9865 72.4984 12.5551C72.4882 11.7866 72.6498 11.0256 72.9715 10.3276C73.2135 9.82147 73.5408 9.3608 73.9391 8.96578C74.383 8.51188 74.9129 8.15099 75.4979 7.9042C76.0829 7.6574 76.7112 7.52965 77.3461 7.52841C77.3871 7.52841 77.4265 7.52841 77.4693 7.52841C78.1295 7.51303 78.7859 7.63291 79.3981 7.88067C80.0103 8.12842 80.5653 8.49882 81.029 8.96907C81.9862 9.92731 82.4647 11.1221 82.4647 12.5535C82.4647 13.9848 81.9862 15.1802 81.029 16.1395V16.1411Z" fill="white"></path><path d="M97.2977 6.69218C96.2989 5.64523 94.971 5.1223 93.3141 5.12339C91.241 5.12339 89.7155 5.92339 88.7375 7.52339V0.236328L86.2734 1.81004V19.6137H88.7375V12.1279C88.7375 10.586 89.1055 9.42346 89.8414 8.64043C90.5773 7.85741 91.575 7.46644 92.8344 7.46754C93.9296 7.46754 94.7865 7.78787 95.4053 8.42852C96.024 9.06918 96.335 9.95405 96.3383 11.0831V19.6137H98.8024V10.9419C98.798 9.15351 98.2964 7.73694 97.2977 6.69218Z" fill="white"></path><path d="M103.643 0.492771C103.496 0.335511 103.318 0.210508 103.12 0.125678C102.922 0.0408478 102.709 -0.00196226 102.494 -4.19254e-05C102.272 -0.00529356 102.053 0.0358463 101.848 0.120727C101.644 0.205607 101.46 0.332344 101.308 0.492771C101.153 0.645668 101.03 0.828179 100.948 1.02941C100.865 1.23065 100.824 1.44648 100.826 1.66402C100.824 1.8783 100.866 2.09071 100.949 2.28838C101.032 2.48605 101.154 2.66484 101.308 2.81392C101.462 2.97084 101.647 3.0944 101.851 3.17691C102.055 3.25942 102.274 3.29914 102.494 3.29359C102.708 3.29593 102.92 3.2546 103.118 3.17213C103.316 3.08966 103.494 2.96778 103.643 2.81392C103.797 2.66484 103.919 2.48605 104.002 2.28838C104.085 2.09071 104.127 1.8783 104.125 1.66402C104.127 1.44648 104.086 1.23065 104.003 1.02941C103.921 0.828179 103.798 0.645668 103.643 0.492771ZM101.244 5.49154V19.6188H103.699V5.49154H101.244Z" fill="white"></path><path d="M108.468 7.864V5.49193H106.004V19.6192H108.468V12.1285C108.468 10.5865 108.901 9.46619 109.767 8.76749C110.645 8.06782 111.754 7.7252 112.874 7.80815V5.2373C110.747 5.2373 109.278 6.11287 108.468 7.864Z" fill="white"></path><path d="M125.248 1.80685V7.91938C124.069 6.09487 122.338 5.164 120.056 5.12677H119.918C118.969 5.11384 118.029 5.30084 117.158 5.67559C116.287 6.05033 115.504 6.6044 114.861 7.30172C114.271 7.90388 113.787 8.60075 113.427 9.36332C112.979 10.3652 112.755 11.4527 112.77 12.5502C112.77 14.6222 113.467 16.3826 114.861 17.8315C115.506 18.5252 116.289 19.0752 117.16 19.4457C118.032 19.8162 118.971 19.9989 119.918 19.9818C122.271 19.9818 124.051 19.0509 125.257 17.1892V19.6138H127.721V0.226562L125.248 1.80685ZM123.808 16.1756C122.847 17.135 121.651 17.6147 120.22 17.6147C119.56 17.6303 118.904 17.5107 118.292 17.2632C117.68 17.0158 117.125 16.6456 116.662 16.1756C116.193 15.6996 115.824 15.1347 115.576 14.5141C115.329 13.8935 115.207 13.2297 115.22 12.5617C115.22 11.1292 115.7 9.93279 116.662 8.97235C117.613 8.03158 118.897 7.50393 120.235 7.50393C121.573 7.50393 122.856 8.03158 123.808 8.97235C124.767 9.93279 125.247 11.1292 125.248 12.5617C125.259 13.2284 125.138 13.8907 124.89 14.5101C124.643 15.1294 124.275 15.6933 123.808 16.1691V16.1756Z" fill="white"></path><path d="M143.632 12.5816C143.632 10.5096 142.975 8.75739 141.661 7.32495C140.361 5.85636 138.675 5.12207 136.603 5.12207C134.42 5.12207 132.64 5.82789 131.264 7.23952C129.887 8.63583 129.198 10.4072 129.197 12.5537C129.197 14.6805 129.894 16.4595 131.288 17.8909C132.712 19.2861 134.538 19.9831 136.767 19.982C139.519 19.982 141.591 18.9176 142.983 16.7886L140.892 15.6058C140.045 16.9792 138.689 17.6664 136.824 17.6675C135.467 17.6675 134.338 17.3143 133.435 16.6079C132.533 15.9015 131.959 14.9263 131.712 13.6822H143.548C143.603 13.3179 143.631 12.95 143.632 12.5816ZM131.712 11.5352C131.918 10.2747 132.46 9.27703 133.337 8.54219C134.214 7.80735 135.301 7.43993 136.598 7.43993C137.694 7.41493 138.761 7.79709 139.592 8.51262C140.422 9.23104 140.94 10.2386 141.146 11.5352H131.712Z" fill="white"></path><path d="M154.484 5.4917L150.049 16.9907L145.614 5.4917H142.959L148.608 19.619H151.49L157.139 5.4917H154.484Z" fill="white"></path><path d="M12.0469 0.245117L24.0929 7.95436V20.0004L12.0469 12.2911V0.245117Z" fill="#3F9CFB"></path><path d="M24.0918 0.245117L36.1378 7.95436V20.0004L24.0918 12.2911V0.245117Z" fill="#3F9CFB"></path><path d="M0 7.95436L12.046 0.245117V12.2911L0 20.0004V7.95436Z" fill="#3F9CFB"></path></g><defs><clipPath id="clip0_151_1216"><rect width="157.138" height="20" fill="white"></rect></clipPath></defs></svg>