<svg width="80" height="48" viewBox="0 0 80 48" fill="none" xmlns="http://www.w3.org/2000/svg"><rect width="80" height="48" rx="6" fill="#455561"></rect><g clip-path="url(#clip0_896_851)"><path fill-rule="evenodd" clip-rule="evenodd" d="M34.998 32.6198H44.6332V15.3484H34.998V32.6198Z" fill="#FF5F00"></path><path fill-rule="evenodd" clip-rule="evenodd" d="M35.61 23.9842C35.61 20.4802 37.2547 17.3595 39.8158 15.3485C37.9426 13.8775 35.5794 13 33.0107 13C26.9295 13 22 17.9178 22 23.9842C22 30.0505 26.9295 34.9683 33.0107 34.9683C35.5794 34.9683 37.9426 34.0908 39.8158 32.6198C37.2547 30.6085 35.61 27.4881 35.61 23.9842Z" fill="#EB001B"></path><path fill-rule="evenodd" clip-rule="evenodd" d="M57.2884 30.7907V30.3644H57.1768L57.0486 30.6576L56.9202 30.3644H56.8085V30.7907H56.8871V30.4691L57.0076 30.7464H57.0893L57.2098 30.4685V30.7907H57.2884ZM56.5815 30.7907V30.437H56.7247V30.365H56.3607V30.437H56.5035V30.7907H56.5815ZM57.6322 23.9842C57.6322 30.0505 52.7024 34.9683 46.6216 34.9683C44.0528 34.9683 41.6893 34.0908 39.8164 32.6198C42.3775 30.6088 44.0222 27.4881 44.0222 23.9842C44.0222 20.4805 42.3775 17.3598 39.8164 15.3485C41.6893 13.8775 44.0528 13 46.6216 13C52.7024 13 57.6322 17.9178 57.6322 23.9842Z" fill="#F79E1B"></path></g><defs><clipPath id="clip0_896_851"><rect width="36" height="22" fill="white" transform="translate(22 13)"></rect></clipPath></defs></svg>