<svg width="20" height="20" viewBox="0 0 18 16" fill="none" xmlns="http://www.w3.org/2000/svg"><path d="M0.33044 7.40899C2.16515 6.39837 4.2132 5.55491 6.1268 4.70712C9.41892 3.31852 12.7241 1.95399 16.0627 0.68362C16.7123 0.467162 17.8794 0.255477 17.9938 1.21809C17.9312 2.58067 17.6734 3.93527 17.4965 5.28986C17.0477 8.26874 16.529 11.2374 16.0232 14.2065C15.8489 15.1955 14.61 15.7074 13.8173 15.0746C11.9122 13.7877 9.99244 12.5134 8.11167 11.1967C7.49558 10.5707 8.06687 9.67173 8.61711 9.22469C10.1862 7.67836 11.8502 6.36457 13.3373 4.73832C13.7385 3.76962 12.5532 4.58601 12.1623 4.83615C10.0142 6.31643 7.91869 7.8871 5.65392 9.18807C4.49708 9.82489 3.14876 9.28067 1.99245 8.92531C0.955657 8.49606 -0.563617 8.0636 0.330335 7.40906L0.33044 7.40899Z" fill="#A2AAB0"></path></svg>