<svg width="20" height="20" viewBox="0 0 20 14" fill="none" xmlns="http://www.w3.org/2000/svg"><path d="M9.9938 0.333008C9.9938 0.333008 3.74298 0.333013 2.17411 0.721366C1.33408 0.94496 0.642384 1.6039 0.40767 2.4159C9.2881e-06 3.91046 0 7.00556 0 7.00556C0 7.00556 9.2881e-06 10.1124 0.40767 11.5834C0.642384 12.3954 1.32173 13.0426 2.17411 13.2662C3.75534 13.6663 9.9938 13.6663 9.9938 13.6663C9.9938 13.6663 16.257 13.6663 17.8259 13.278C18.6782 13.0544 19.3576 12.419 19.5799 11.5952C20 10.1124 20 7.01733 20 7.01733C20 7.01733 20.0123 3.91046 19.5799 2.4159C19.3576 1.6039 18.6782 0.956743 17.8259 0.744914C16.257 0.333027 9.9938 0.333008 9.9938 0.333008ZM8.00489 4.14595L13.2057 7.00556L8.00489 9.8534V4.14595Z" fill="#A2AAB0"></path></svg>